<?xml version="1.0" standalone="no"?><!DOCTYPE svg PUBLIC "-//W3C//DTD SVG 1.1//EN" "http://www.w3.org/Graphics/SVG/1.1/DTD/svg11.dtd"><svg t="1686840633416" class="icon" viewBox="0 0 1024 1024" version="1.1" xmlns="http://www.w3.org/2000/svg" p-id="2711" xmlns:xlink="http://www.w3.org/1999/xlink" width="200" height="200"><path d="M722.1 573.6c-4.9-29.7-10.2-46.6 2.4-87.9 71.7-235.2-67.3-266.2-67.3-266.2C522.4 154.2 442.9 287 405.5 337c-25.8 34.5-39.9 43-65.8 58.3-54.9 32.4-102.6 83.6-133.2 149.2-72 154.3-38.4 318.2 94.9 380.3 1.1 0.5 19.6 6.1 20.8 6.6 133.3 62.2 299.2-5.6 371.1-159.9 30.7-65.5 39.2-134.9 28.8-197.9z" fill="#FFDE3E" p-id="2712"></path><path d="M637.9 205.6c4.9 1.4 16.2 5.3 30 13.6 20.2-22.1 46-59.7 60.8-117.5 0.5-2.1 0.4-4.4-0.5-6.4-3.3-7.6-13-20.6-29-20.6-6.5 0-13.2 2.2-20 6.5-1.6 1-3 2.6-3.8 4.3-10.7 23.8-37 78.4-58.6 111.2 7.1 2.6 14.1 5.6 21.1 8.9z" fill="#CC9762" p-id="2713"></path><path d="M873 172.6c-10.2-14.1-32.5-40.1-67.3-55.1-18.7-8.1-39.4-12.1-61.6-12.1-2 0-4 0-6 0.1-9.7 37.3-24 66.5-38.5 88.7 12.3 13.6 30.7 29.8 55.6 40.5 19.2 8.3 40.5 12.5 63.1 12.5 30.5 0 67.2-8.9 73.4-23.2 5-11.9-6.9-35.1-18.7-51.4z" fill="#7DC457" p-id="2714"></path><path d="M898.2 197c-3.8-9.6-9.7-20-17.1-30.2-10.8-15-34.5-42.4-71.5-58.4-19.9-8.6-42-13-65.5-13v20-20c-1.8 0-3.6 0-5.4 0.1-0.3-1.4-0.7-2.8-1.2-4.1-4.2-9.9-17-26.6-38.2-26.6-8.4 0-17 2.7-25.3 8-3.3 2.1-5.9 5.1-7.5 8.7-0.1 0.3-13.1 29.1-29.3 60.1-11 21-19.7 35.9-26.4 46.4-50.3-16.2-97.9-11.5-142 14-4.8 2.8-6.4 8.9-3.6 13.7 2.8 4.8 8.9 6.4 13.7 3.6 47.7-27.6 98.3-27.8 154.7-0.6 0.6 0.3 1.3 0.5 1.9 0.7 1.8 0.5 44.9 11.8 72.4 59.8 28.3 49.3 29.9 118.4 4.8 205.1-11.7 40.3-7.1 60.6-1.3 86.5 0.6 2.9 1.3 5.9 2 9 14.2 66.2 6.2 134.2-23 196.9-33.9 72.7-93.1 127.7-166.6 154.8-72.7 26.8-151.3 23.5-221.4-9.1-1-0.5-2.3-0.9-13.1-4.4-3.8-1.2-9-2.9-10.3-3.4-139.2-65.1-187.2-226-114.1-382.8 29.2-62.6 76.2-112.5 136-144.2 27.8-14.7 44.6-23.6 73.2-60.3 3.2-4.1 6.7-8.8 10.4-13.8 8.2-11 17.5-23.4 28.4-36.2 3.6-4.2 3.1-10.5-1.2-14.1-4.2-3.6-10.5-3.1-14.1 1.2-11.3 13.3-20.8 26-29.2 37.2-3.6 4.9-7.1 9.5-10.2 13.5-25.9 33.3-39.6 40.5-66.8 54.9-30.9 16.4-58.9 37.6-83.3 63.1-25.2 26.4-45.9 56.8-61.5 90.3-36.9 79-45.4 163.5-24.1 237.7 10.7 37.4 28.6 71.1 53.1 100 25.5 30.1 57.5 54.3 95.1 71.8 1 0.5 2.1 0.8 12.3 4.1 4.1 1.3 9.7 3.2 11.1 3.7 37.6 17.5 77.6 27.1 118.8 28.6 3.6 0.1 7.3 0.2 10.9 0.2 36.4 0 72.3-6.4 106.8-19.1 78.5-28.9 141.6-87.5 177.8-165.1C724 751.6 734 716.2 738 679.9c3.9-35.1 2.1-70.2-5.2-104.4-0.7-3.2-1.4-6.3-2-9.2-5.5-24.8-9.2-41.2 1-76.5 26.7-92.2 24.5-166.4-6.7-220.7-13.2-23-29.7-38.7-44.6-49.3 4.3-5.1 8.8-10.7 13.3-17.1 13 14 32.1 30.3 57.4 41.2 20.5 8.8 43 13.3 67 13.3 17.2 0 34.8-2.5 49.6-6.9 24.1-7.3 30.3-16.2 33-22.3 3.4-8.1 2.7-18-2.6-31zM739 98.9v-0.4 0.4z m-0.3 3.9c-0.1 0.5-0.2 0.9-0.3 1.4 0.1-0.5 0.2-1 0.3-1.4z m0.3-3.1v0z m-0.1 1.5c0 0.4-0.1 0.7-0.1 1.1 0.1-0.3 0.1-0.7 0.1-1.1z m-2 8.8v0.2c-0.1-0.1 0-0.2 0-0.2z m-95.6 90.2c-3.8-1.8-7.6-3.5-11.4-5.1 26.3-42.2 54.7-105.4 54.7-105.4 5.6-3.6 10.4-4.9 14.6-4.9 13.6 0 19.8 14.5 19.8 14.5-13.6 53.2-37 88.6-55.8 110-10.7-5.7-19-8.3-21.9-9.1z m61.1-10.4c-0.1 0.2-0.2 0.3-0.3 0.5 0.1-0.2 0.2-0.4 0.3-0.5z m180 30.3c-2.9 6.7-30.1 17.2-64.2 17.2-18.6 0-39.2-3.1-59.1-11.7-22.5-9.7-40.6-24.8-54-40.2 11.2-18.7 21.9-41.8 30.2-69.8 2.9-0.2 5.8-0.2 8.8-0.2 18.2 0 38.3 3 57.6 11.3 56.3 24.3 85.3 82.6 80.7 93.4z" fill="#420B0D" p-id="2715"></path><path d="M608.6 801.2m-17.5 0a17.5 17.5 0 1 0 35 0 17.5 17.5 0 1 0-35 0Z" fill="#F2CB2A" p-id="2716"></path><path d="M490.538441 781.820056a17.3 17.3 0 1 0 34.527138-2.244268 17.3 17.3 0 1 0-34.527138 2.244268Z" fill="#F2CB2A" p-id="2717"></path><path d="M373.116993 883.549156a31.9 31.9 0 1 0 40.506991-49.291213 31.9 31.9 0 1 0-40.506991 49.291213Z" fill="#F2CB2A" p-id="2718"></path><path d="M466.563305 869.395516a22 22 0 1 0 25.797273-35.644083 22 22 0 1 0-25.797273 35.644083Z" fill="#F2CB2A" p-id="2719"></path><path d="M334.115431 784.32959a22 22 0 1 0 11.690392-42.418565 22 22 0 1 0-11.690392 42.418565Z" fill="#F2CB2A" p-id="2720"></path></svg>