<?xml version="1.0" standalone="no"?><!DOCTYPE svg PUBLIC "-//W3C//DTD SVG 1.1//EN" "http://www.w3.org/Graphics/SVG/1.1/DTD/svg11.dtd"><svg t="1686840364590" class="icon" viewBox="0 0 1024 1024" version="1.1" xmlns="http://www.w3.org/2000/svg" p-id="1444" xmlns:xlink="http://www.w3.org/1999/xlink" width="200" height="200"><path d="M650.4 822.6c-24.8 0-48.9-5.4-71.5-15.9-41-19.1-72.1-53.1-87.6-95.6-15.5-42.5-13.5-88.5 5.7-129.5 13.9-29.8 35.9-54.7 63.7-72 27-16.9 58.1-25.8 90-25.8 24.8 0 48.9 5.4 71.5 15.9 41 19.1 72.1 53.1 87.6 95.6s13.5 88.5-5.7 129.5c-13.9 29.8-35.9 54.7-63.7 72-27.1 16.9-58.2 25.8-90 25.8z" fill="#EF4743" p-id="1445"></path><path d="M650.6 493.8c22.6 0 45.5 4.8 67.3 15 79.8 37.2 114.3 132 77.1 211.8-27 58-84.5 92.1-144.6 92.1-22.6 0-45.5-4.8-67.3-15-79.8-37.2-114.3-132-77.1-211.8 27-58.1 84.5-92.1 144.6-92.1m0-20v20-20c-33.7 0-66.6 9.4-95.3 27.3-29.4 18.4-52.7 44.7-67.5 76.3-10.2 21.9-15.9 45.2-16.7 69.3-0.8 23.2 2.8 46 10.7 67.9 8 21.9 19.9 41.7 35.4 58.9 16.1 17.8 35.4 32.1 57.3 42.3 24 11.2 49.4 16.8 75.7 16.8 33.7 0 66.6-9.4 95.2-27.3 29.4-18.4 52.7-44.7 67.5-76.3 10.2-21.9 15.9-45.2 16.7-69.3 0.8-23.2-2.8-46-10.7-67.9-8-21.9-19.9-41.7-35.4-58.9-16.1-17.8-35.4-32.1-57.3-42.3-23.9-11.2-49.4-16.8-75.6-16.8z" fill="#420B0D" p-id="1446"></path><path d="M556.8 808.9c-62.1 121.9-230.1 164.2-311 126.4-123.1-57.4-178.4-199.5-120.6-323.5s204.6-178 327.7-120.5 166 195.7 103.9 317.6z" fill="#EF4743" p-id="1447"></path><path d="M331.1 958.5c-37.8 0-75.4-8.3-110.7-24.7-63.5-29.6-111.7-82.2-135.6-148-24-65.8-20.9-137.1 8.8-200.6 26.8-57.6 73.6-103.4 131.6-129 5.1-2.2 11 0.1 13.2 5.1s-0.1 11-5.1 13.2c-53.6 23.7-96.8 66-121.5 119.2-56.5 121.1-3.9 265.5 117.2 322 121.1 56.5 265.5 3.9 322-117.2 27.4-58.7 30.2-124.5 8.1-185.3s-66.6-109.4-125.3-136.7c-40.7-19-85.6-26.3-129.9-21.2-5.5 0.6-10.4-3.3-11.1-8.8-0.6-5.5 3.3-10.4 8.8-11.1 48-5.5 96.6 2.4 140.7 22.9 63.5 29.6 111.7 82.2 135.6 148 24 65.8 20.9 137.1-8.8 200.6-29.6 63.5-82.2 111.7-148 135.6-29.4 10.7-59.7 16-90 16z" fill="#420B0D" p-id="1448"></path><path d="M506.9 629.2c-2.2 0-4.1-1.1-6.2-2.2-37.8-19.4-47-65-46.4-79.2 0.6-14.2 15.6-13.2 18.7-1.2 4.2 11.9 7.5 38.7 39.9 64.5 4.1 3.3 5.3 9.1 2.5 13.5-2 3-5.2 4.6-8.5 4.6zM731.6 642.2c-1.4 0-2.6-0.7-3.9-1.4-23.9-12.3-29.7-41.1-29.4-50.1 0.4-9 14.9-11.4 16.8-3.8 2.7 7.5 4.7 24.5 25.2 40.9 2.6 2.1 2.2 5.3 1.6 8.6-1 5.2-8.2 5.8-10.3 5.8z" fill="#420B0D" p-id="1449"></path><path d="M727.8 623.4c-3.5 0-6.8-1.8-8.7-5-2.8-4.8-1.1-10.9 3.7-13.7 35.3-20.3 59.5-55.4 71.9-104.2 10.2-40.2 12.5-89.6 6.9-146.9-9.7-98.5-39.8-186.9-40.1-187.7-1.8-5.2 1-10.9 6.2-12.7 5.2-1.8 10.9 1 12.7 6.2 0.3 0.9 31.2 91.2 41.1 192 5.9 59.7 3.4 111.5-7.3 153.9-13.8 54.4-41.1 93.7-81.4 116.8-1.6 0.9-3.3 1.3-5 1.3z" fill="#420B0D" p-id="1450"></path><path d="M478.6 584.6c-4.9 0-9.1-3.6-9.9-8.5-0.8-5.5 3-10.5 8.4-11.4 136.2-20.2 225.3-93.3 265-217.3 29.9-93.5 19-182.6 18.9-183.4-0.7-5.5 3.2-10.5 8.6-11.2 5.5-0.7 10.5 3.2 11.2 8.6 0.5 3.8 11.6 93.7-19.4 191.4-18.3 57.8-47.7 106.1-87.2 143.5-49.4 46.8-114.7 76.4-194 88.2-0.6 0.1-1.1 0.1-1.6 0.1z" fill="#420B0D" p-id="1451"></path><path d="M921.8 341.7c-24.5 0-74.9-19.1-105.3-60.1-21.6-29.1-27.6-61.3-29.2-77.9-0.7-6.9-3.5-42.1 9.6-51.8 2.9-2.1 6.7-3.1 12-3.1 12.4 0 31.6 5.4 49 13.7 16.4 7.8 39.6 22.2 57.4 46.1 21.6 29.1 27.6 61.3 29.2 77.9 0.7 6.9 3.5 42.1-9.6 51.8-3.2 2.3-7.4 3.4-13.1 3.4z" fill="#7DC457" p-id="1452"></path><path d="M808.8 158.8c18.1 0 68.3 15.2 98.3 55.7 34.8 47 30.8 109 21.8 115.7-1.3 1-3.8 1.5-7.1 1.5-19.1 0-67.6-16-97.2-56-34.8-47-30.8-109-21.8-115.7 1-0.8 3.1-1.2 6-1.2m0-20c-7.4 0-13.3 1.7-17.9 5.1-7 5.2-11.2 13.9-13.2 27.4-1.4 9.8-1.6 21.3-0.4 33.3 1.8 17.6 8.1 51.8 31.2 82.9 18.8 25.4 42.9 40.7 59.7 49 19.1 9.5 39.1 15.1 53.6 15.1 7.9 0 14.1-1.8 19-5.4 7-5.2 11.2-13.9 13.2-27.4 1.4-9.8 1.6-21.3 0.4-33.3-1.8-17.6-8.1-51.8-31.2-82.9-19-25.6-43.7-40.9-61.1-49.2-18.9-9-39.3-14.6-53.3-14.6z" fill="#420B0D" p-id="1453"></path><path d="M658.3 216.2c-2.5 0-5-0.1-7.4-0.2-42.1-2-75.5-20.2-91.6-30.9-18.5-12.2-39.8-31.5-39.2-45.5 0.8-16.3 36.7-37.1 40.8-39.4 16.3-9.2 49.6-24.7 89.4-24.7 2.4 0 4.8 0.1 7.1 0.2 42.1 2 75.5 20.2 91.6 30.9 18.5 12.2 39.8 31.5 39.2 45.5-0.8 17-34.1 36.4-40.8 40.1-16 8.9-48.9 24-89.1 24z" fill="#7DC457" p-id="1454"></path><path d="M650.3 85.5c2.2 0 4.4 0.1 6.7 0.2 68.5 3.2 121.9 52.8 121.3 65.9-0.6 12.1-54.5 54.6-119.9 54.6-2.3 0-4.6-0.1-6.9-0.2-68.5-3.2-121.9-52.8-121.3-65.9 0.4-10.3 54.5-54.6 120.1-54.6m0-20v20-20c-42.2 0-77.2 16.3-94.4 26-11.4 6.4-21.6 13.7-29.5 20.9-10.9 9.9-15.9 18.1-16.3 26.8-0.4 9.2 4.1 18.7 14.3 29.8 7.6 8.4 17.8 16.8 29.4 24.5 17 11.3 52.2 30.5 96.7 32.5 2.6 0.1 5.3 0.2 7.9 0.2 42.4 0 77.1-15.8 94-25.3 11.5-6.4 21.8-13.7 29.7-21 10.6-9.8 15.8-18.5 16.2-27.4 0.4-9.2-4.1-18.7-14.3-29.8-7.6-8.4-17.8-16.8-29.4-24.5-17-11.3-52.2-30.5-96.7-32.5-2.5-0.1-5.1-0.2-7.6-0.2z" fill="#420B0D" p-id="1455"></path></svg>