<?xml version="1.0" standalone="no"?><!DOCTYPE svg PUBLIC "-//W3C//DTD SVG 1.1//EN" "http://www.w3.org/Graphics/SVG/1.1/DTD/svg11.dtd"><svg t="1686840485438" class="icon" viewBox="0 0 1024 1024" version="1.1" xmlns="http://www.w3.org/2000/svg" p-id="1758" xmlns:xlink="http://www.w3.org/1999/xlink" width="200" height="200"><path d="M864.9 474.3c-1.1 0-2.3-0.2-3.4-0.6l-213.2-76.9c-2.8-1-5.1-3.3-6.1-6.1L569 180.5c-1.2-3.5-0.4-7.3 2.1-10 1.9-2.1 4.6-3.3 7.4-3.3 0.8 0 1.6 0.1 2.4 0.3l90.1 22.2 36-84.1c1.4-3.2 4.4-5.5 7.9-6 0.4-0.1 0.9-0.1 1.3-0.1 3.1 0 6 1.4 7.9 3.8l44.7 57.1 143.8-15.3c0.4 0 0.7-0.1 1.1-0.1 2.8 0 5.6 1.2 7.5 3.3 2.1 2.4 3 5.7 2.3 8.8L889 311.2l54.4 33.9c3.2 2 5 5.7 4.7 9.5s-2.8 7-6.4 8.4l-92.3 35.1 24.8 62.5c1.4 3.7 0.6 7.8-2.1 10.6-2 2.1-4.6 3.1-7.2 3.1z" fill="#7DC457" p-id="1759"></path><path d="M716.2 109.5l48.1 61.5 149.3-15.9-36 160.9 60.5 37.7-101.7 38.7 28.5 72-213.2-76.9-73.2-210.2 98.3 24.2 39.4-92M716.2 89.5c-0.9 0-1.7 0.1-2.6 0.2-7 0.9-13 5.5-15.8 12L665.1 178l-81.9-20.2c-1.6-0.4-3.2-0.6-4.8-0.6-5.6 0-10.9 2.3-14.8 6.5-4.9 5.4-6.5 13.1-4.1 20L632.8 394c2 5.7 6.4 10.2 12.1 12.2l213.2 76.9c2.2 0.8 4.5 1.2 6.8 1.2 5.3 0 10.5-2.1 14.4-6.1 5.5-5.6 7.1-14 4.2-21.3l-21-53.1 82.8-31.5c7.1-2.7 12.1-9.2 12.8-16.8 0.7-7.6-2.9-14.9-9.3-18.9l-48.4-30.2L933 160c0.4-1.6 0.6-3.2 0.6-4.9 0-10.9-8.7-19.7-19.5-20h-1c-0.6 0-1.2 0.1-1.9 0.1l-138 14.7-41.3-52.8c-3.8-4.8-9.6-7.6-15.7-7.6z" fill="#420B0D" p-id="1760"></path><path d="M713.3 296.7c-1.9 0-3.7-0.4-5.3-1.2l-12.9-6c-9.6-4.5-12.5-17.4-6.9-30.8l0.2-0.5c0.2-0.4 0.4-0.8 0.5-1.2 3.3-8.5 20.5-52.6 37.6-82.7 14.5-25.4 38.7-59.6 63-79.2 5-4 10.4-6.1 15.6-6.1 6.5 0 12.1 3.2 15.6 8.9l5.9 9.6c8.8 14.3 0.3 38.4-12.9 49.6-11.1 9.4-21.8 22.1-37 43.6-23.6 33.5-40.1 70.9-40.3 71.2 0 0.1-0.1 0.1-0.1 0.2-7.9 17.5-14.6 24.6-23 24.6z" fill="#CC9762" p-id="1761"></path><path d="M805.3 99c2.9 0 5.4 1.4 7.1 4.1l5.9 9.6c5.5 8.9-0.1 27.6-10.9 36.7-11.1 9.5-22 21.8-38.7 45.5-24.5 34.8-41.2 73-41.2 73-3.5 7.6-9.6 18.8-14.1 18.8-0.4 0-0.7-0.1-1.1-0.2l-12.9-6c-4.4-2.1-5.2-9.9-1.9-17.8 0.3-0.7 0.6-1.3 0.8-2 2.7-7.1 20-51.6 37-81.3 15.6-27.3 39.2-59.1 60.6-76.4 3.3-2.7 6.5-4 9.4-4m0-20c-7.5 0-15.1 2.9-21.9 8.4-25.4 20.5-50.4 55.8-65.4 82-17.5 30.7-35 75.4-38.3 84.1-0.1 0.3-0.2 0.6-0.4 0.9l-0.2 0.5c-2.9 7-4.1 14.2-3.4 20.9 1.1 10.5 6.7 18.8 15.3 22.8l12.9 6c3 1.4 6.2 2.1 9.6 2.1 13.7 0 21.5-11.6 24-15.4 2.7-4 5.4-9 8.2-14.9 0.1-0.1 0.1-0.3 0.2-0.4 0.2-0.4 16.3-36.8 39.3-69.5 14.6-20.8 24.8-32.9 35.3-41.7 16.6-14.1 26.8-43.2 14.9-62.4l-5.9-9.6c-5.4-8.7-14.4-13.8-24.2-13.8z" fill="#420B0D" p-id="1762"></path><path d="M357 384.4v12.5-12.5c37.6 0 73.6 11.5 104.3 33.4 5.2 3.7 10.1 7.6 14.8 11.8 3.7-29.1 14.5-57 32-81.6 17-23.8 39.6-43.4 65.6-56.5 0.5-0.2 1-0.5 1.4-0.7-3.4-2.9-6.9-5.7-10.6-8.4-61.4-43.8-146.8-29.4-190.5 32.1-15.2 21.4-23.4 45.6-25 70 2.7 0 5.3-0.1 8-0.1z" fill="#732B7F" p-id="1763"></path><path d="M650 605.8c-34.4 0-67.5-10.6-95.7-30.6-36-25.6-59.9-63.7-67.2-107.2s2.7-87.4 28.3-123.4c31-43.6 81.4-69.6 134.9-69.6 34.4 0 67.5 10.6 95.7 30.6 74.3 52.8 91.8 156.3 39 230.6-31.1 43.6-81.5 69.6-135 69.6z" fill="#732B7F" p-id="1764"></path><path d="M650.3 285c31.1 0 62.6 9.3 89.9 28.7 69.9 49.7 86.3 146.7 36.6 216.6-30.3 42.6-78.2 65.4-126.8 65.4-31.1 0-62.6-9.3-89.9-28.7-69.9-49.7-86.3-146.7-36.6-216.6 30.3-42.6 78.2-65.4 126.8-65.4m0-20v20-20c-27.4 0-54.8 6.5-79.3 18.8-25.3 12.7-47.3 31.7-63.8 54.9-13.7 19.3-23.2 40.7-28.3 63.6-4.9 22.1-5.5 44.7-1.7 67.2 3.8 22.4 11.8 43.6 23.7 62.9 12.3 20 28.4 37.1 47.6 50.8 29.9 21.2 65 32.4 101.5 32.4 27.4 0 54.8-6.5 79.2-18.8 25.3-12.7 47.3-31.7 63.8-54.9 13.7-19.3 23.2-40.7 28.3-63.6 4.9-22.1 5.5-44.7 1.7-67.2-3.8-22.4-11.8-43.6-23.7-62.9-12.3-20-28.4-37.1-47.6-50.8-29.8-21.2-64.9-32.4-101.4-32.4z" fill="#420B0D" p-id="1765"></path><path d="M370.2 557.6m-146 0a146 146 0 1 0 292 0 146 146 0 1 0-292 0Z" fill="#732B7F" p-id="1766"></path><path d="M352 397.3c31.1 0 62.6 9.3 89.9 28.7 69.9 49.7 86.3 146.7 36.6 216.6-30.3 42.6-78.2 65.4-126.8 65.4-31.1 0-62.6-9.3-89.9-28.7-69.9-49.7-86.3-146.7-36.6-216.6 30.3-42.6 78.2-65.4 126.8-65.4m0-20v20-20c-27.4 0-54.8 6.5-79.3 18.8-25.3 12.7-47.3 31.7-63.8 54.9-13.7 19.3-23.2 40.7-28.3 63.6-4.9 22.1-5.5 44.7-1.7 67.2 3.8 22.4 11.8 43.6 23.7 62.9 12.3 20 28.4 37.1 47.6 50.8 29.9 21.2 65 32.4 101.5 32.4 27.4 0 54.8-6.5 79.2-18.8 25.3-12.7 47.3-31.7 63.8-54.9 13.7-19.3 23.2-40.7 28.3-63.6 4.9-22.1 5.5-44.7 1.7-67.2-3.8-22.4-11.8-43.6-23.7-62.9-12.3-20-28.4-37.1-47.6-50.8-29.8-21.1-64.9-32.4-101.4-32.4z" fill="#420B0D" p-id="1767"></path><path d="M323.4 398.5c-10.1-39.3-3.4-82.7 21.9-118.3 0.5-0.7 1-1.3 1.4-2 4.1-5.5 2.9-13.4-2.6-17.4-5.5-4.1-13.4-2.9-17.4 2.6-0.6 0.8-1.1 1.5-1.7 2.3-30 42.2-37.6 93.6-25.4 140.1 7.6-3 15.6-5.5 23.8-7.3zM558.9 226.2c-39.6-28.2-89.4-37.8-136.7-26.3-6.7 1.6-10.8 8.4-9.2 15.1 1.6 6.7 8.4 10.8 15.1 9.2 40.2-9.7 82.7-1.5 116.4 22.4 17.7 12.6 31.7 28.5 41.7 46.3 8.2-2.6 16.6-4.6 25.1-5.9-11.9-23.5-29.5-44.5-52.4-60.8z" fill="#420B0D" p-id="1768"></path><path d="M789.8 761.8c-34.4 0-67.5-10.6-95.7-30.6-74.3-52.8-91.8-156.3-39-230.6C686.1 457 736.5 431 790 431c34.4 0 67.5 10.6 95.7 30.6 36 25.6 59.9 63.7 67.2 107.2s-2.7 87.4-28.3 123.4c-30.9 43.6-81.3 69.6-134.8 69.6z" fill="#732B7F" p-id="1769"></path><path d="M790 441c31.1 0 62.6 9.3 89.9 28.7 69.9 49.7 86.3 146.7 36.6 216.6-30.3 42.6-78.2 65.4-126.8 65.4-31.1 0-62.6-9.3-89.9-28.7-69.9-49.7-86.3-146.7-36.6-216.6C693.6 463.8 741.4 441 790 441m0-20v20-20c-27.4 0-54.8 6.5-79.3 18.8-25.3 12.7-47.3 31.7-63.8 54.9-13.7 19.3-23.2 40.7-28.3 63.6-4.9 22.1-5.5 44.7-1.7 67.2 3.8 22.4 11.8 43.6 23.7 62.9 12.3 20 28.4 37.1 47.6 50.8 29.9 21.2 65 32.4 101.5 32.4 27.4 0 54.8-6.5 79.2-18.8 25.3-12.7 47.3-31.7 63.8-54.9 13.7-19.3 23.2-40.7 28.3-63.6 4.9-22.1 5.5-44.7 1.7-67.2-3.8-22.4-11.8-43.6-23.7-62.9-12.3-20-28.4-37.1-47.6-50.8C861.7 432.2 826.6 421 790 421z" fill="#420B0D" p-id="1770"></path><path d="M511.5 884.1c-34.4 0-67.5-10.6-95.7-30.6-36-25.6-59.9-63.7-67.2-107.2-7.4-43.6 2.7-87.4 28.3-123.4 31-43.6 81.4-69.6 134.9-69.6 34.4 0 67.5 10.6 95.7 30.6 36 25.6 59.9 63.7 67.2 107.2 7.4 43.6-2.7 87.4-28.3 123.4-31 43.6-81.4 69.6-134.9 69.6z" fill="#732B7F" p-id="1771"></path><path d="M511.7 563.3c31.1 0 62.6 9.3 89.9 28.7 69.9 49.7 86.3 146.7 36.6 216.6C607.9 851.2 560 874 511.4 874c-31.1 0-62.6-9.3-89.9-28.7-69.9-49.7-86.3-146.7-36.6-216.6 30.4-42.6 78.2-65.4 126.8-65.4m0-20v20-20c-27.4 0-54.8 6.5-79.3 18.8-25.3 12.7-47.3 31.7-63.8 54.9-13.7 19.3-23.2 40.7-28.3 63.6-4.9 22.1-5.5 44.7-1.7 67.2 3.8 22.4 11.8 43.6 23.7 62.9 12.3 20 28.4 37.1 47.6 50.8 29.9 21.2 65 32.4 101.5 32.4 27.4 0 54.8-6.5 79.2-18.8 25.3-12.7 47.3-31.7 63.8-54.9 13.7-19.3 23.2-40.7 28.3-63.6 4.9-22.1 5.5-44.7 1.7-67.2-3.8-22.4-11.8-43.6-23.7-62.9-12.3-20-28.4-37.1-47.6-50.8-29.7-21.2-64.8-32.4-101.4-32.4z" fill="#420B0D" p-id="1772"></path><path d="M234.4 934c-34.4 0-67.5-10.6-95.7-30.6-74.3-52.8-91.8-156.3-39-230.6 31-43.6 81.4-69.6 134.9-69.6 34.4 0 67.5 10.6 95.7 30.6 74.3 52.8 91.8 156.3 39 230.6C338.4 908 287.9 934 234.4 934z" fill="#732B7F" p-id="1773"></path><path d="M234.7 613.2c31.1 0 62.6 9.3 89.9 28.7 69.9 49.7 86.3 146.7 36.6 216.6C330.9 901.3 283 924 234.4 924c-31.1 0-62.6-9.3-89.9-28.7-69.9-49.7-86.3-146.7-36.6-216.6 30.3-42.7 78.2-65.5 126.8-65.5m0-20v20-20c-27.4 0-54.8 6.5-79.3 18.8-25.3 12.7-47.3 31.7-63.8 54.9-13.7 19.3-23.2 40.7-28.3 63.6-4.9 22.1-5.5 44.7-1.7 67.2 3.8 22.4 11.8 43.6 23.7 62.9 12.3 20 28.4 37.1 47.6 50.8 29.9 21.2 65 32.4 101.5 32.4 27.4 0 54.8-6.5 79.2-18.8 25.3-12.7 47.3-31.7 63.8-54.9 13.7-19.3 23.2-40.7 28.3-63.6 4.9-22.1 5.5-44.7 1.7-67.2-3.8-22.4-11.8-43.6-23.7-62.9-12.3-20-28.4-37.1-47.6-50.8-29.8-21.1-64.9-32.4-101.4-32.4z" fill="#420B0D" p-id="1774"></path><path d="M143.966417 740.908403a50.5 50.5 0 1 0 71.416538-71.419031 50.5 50.5 0 1 0-71.416538 71.419031Z" fill="#9C49AD" p-id="1775"></path><path d="M480.5 627.9m-50.5 0a50.5 50.5 0 1 0 101 0 50.5 50.5 0 1 0-101 0Z" fill="#9C49AD" p-id="1776"></path><path d="M743.7 515.4m-47.9 0a47.9 47.9 0 1 0 95.8 0 47.9 47.9 0 1 0-95.8 0Z" fill="#9C49AD" p-id="1777"></path><path d="M574.114919 342.8887a37.600752 37.600752 0 1 0 75.192473-1.165466 37.600752 37.600752 0 1 0-75.192473 1.165466Z" fill="#9C49AD" p-id="1778"></path></svg>