<?xml version="1.0" standalone="no"?><!DOCTYPE svg PUBLIC "-//W3C//DTD SVG 1.1//EN" "http://www.w3.org/Graphics/SVG/1.1/DTD/svg11.dtd"><svg t="1686840940537" class="icon" viewBox="0 0 1024 1024" version="1.1" xmlns="http://www.w3.org/2000/svg" p-id="1184" xmlns:xlink="http://www.w3.org/1999/xlink" width="200" height="200"><path d="M265.471793 889.889148a316.7 425 24.999 1 0 359.212077-770.367889 316.7 425 24.999 1 0-359.212077 770.367889Z" fill="#BC7F55" p-id="1185"></path><path d="M702.7 126.1c-19.7-9.2-39.8-16.6-60.2-22.3 149.2 85.9 192.2 314.8 94.4 524.4C645.2 825.1 460.7 937.8 304.7 902c9.4 5.4 19.1 10.4 29.1 15.1 206.7 96.4 456.9-2.5 558.7-220.9s16.9-473.7-189.8-570.1z" fill="#9B5C31" p-id="1186"></path><path d="M922.8 362.2c-17.9-53.6-45.2-101.9-81.4-143.6-37.5-43.2-82.7-77.4-134.5-101.5-19.4-9.1-39.7-16.6-60.3-22.5-6.2-3.5-12.6-6.8-19.1-9.9C579.7 62.5 527.4 55.2 472 63c-52.4 7.4-106.4 29-156.1 62.3a9.99 9.99 0 0 0-2.7 13.9c3.1 4.6 9.3 5.8 13.9 2.7 97.9-65.7 204.3-79.9 292-39 6.1 2.9 12.1 6 17.9 9.3 0.2 0.1 0.3 0.2 0.5 0.3 19.4 11.2 37.1 25 52.9 41.1l0.9 0.9c1.3 1.3 2.6 2.7 3.9 4.1 0.7 0.8 1.5 1.6 2.2 2.4 0.9 1 1.8 2 2.6 2.9 75.7 86.1 99.8 226.5 61.3 369-0.1 0.6-0.3 1.1-0.5 1.7-0.7 2.5-1.4 4.9-2.1 7.4-0.3 1.2-0.7 2.4-1 3.6-0.5 1.8-1 3.5-1.6 5.3-0.5 1.7-1.1 3.4-1.6 5.1-0.3 1.1-0.7 2.2-1 3.2-0.7 2.3-1.5 4.6-2.3 6.9-0.3 0.8-0.5 1.5-0.8 2.3-0.9 2.5-1.8 5-2.7 7.6-0.2 0.7-0.5 1.3-0.7 2-0.9 2.6-1.9 5.2-2.9 7.8-0.2 0.6-0.4 1.1-0.6 1.7-1 2.7-2.1 5.3-3.1 8-0.2 0.5-0.4 1-0.6 1.4-1.1 2.7-2.2 5.5-3.4 8.2-0.2 0.4-0.3 0.8-0.5 1.2-1.2 2.8-2.4 5.6-3.7 8.4-0.1 0.2-0.2 0.5-0.3 0.7-1.3 2.9-2.6 5.9-4 8.8-1.3 2.7-2.5 5.4-3.8 8.1-0.1 0.3-0.3 0.6-0.4 0.9-1.3 2.7-2.6 5.4-4 8-0.1 0.1-0.1 0.3-0.2 0.4-27.4 53.8-62.7 102.2-103.6 142l-0.3 0.3c-1.9 1.8-3.8 3.6-5.6 5.4-0.6 0.6-1.2 1.1-1.8 1.7-1.3 1.2-2.5 2.4-3.8 3.5-1.4 1.2-2.7 2.5-4.1 3.7l-0.6 0.6c-47 41.8-99.4 71.8-152.5 87.4-0.1 0-0.1 0-0.2 0.1-2 0.6-4 1.2-6.1 1.7-0.8 0.2-1.5 0.4-2.3 0.6-1.1 0.3-2.1 0.6-3.2 0.8-1.6 0.4-3.3 0.8-4.9 1.2-0.7 0.2-1.5 0.3-2.2 0.5-1.8 0.4-3.7 0.8-5.5 1.2-0.4 0.1-0.8 0.2-1.2 0.2-2.1 0.4-4.2 0.8-6.2 1.2-0.2 0-0.4 0.1-0.7 0.1l-6.9 1.2c-0.2 0-0.3 0.1-0.5 0.1-2.4 0.4-4.7 0.7-7.1 1h-0.2c-12.2 1.6-24.3 2.4-36.3 2.4h-0.1c-4.7 0-9.4-0.1-14.1-0.4h-0.3c-2.1-0.1-4.3-0.3-6.4-0.4-0.4 0-0.8-0.1-1.2-0.1-2-0.2-3.9-0.4-5.9-0.6-0.5-0.1-1.1-0.1-1.6-0.2-1.9-0.2-3.8-0.4-5.6-0.7-0.6-0.1-1.1-0.2-1.7-0.2-1.6-0.2-3.1-0.5-4.7-0.7-0.7-0.1-1.4-0.2-2-0.3-1.6-0.3-3.3-0.6-4.9-0.9-0.7-0.1-1.3-0.3-2-0.4-1.8-0.4-3.5-0.7-5.3-1.1-16.8-3.8-33.2-9.3-49.1-16.7-76.8-35.9-130.5-109.4-151.3-207.2-21-98.8-6-210.4 42.4-314 24.3-52.1 55.5-99 92.7-139.6 3.7-4.1 3.5-10.4-0.6-14.1-4.1-3.7-10.4-3.5-14.1 0.6-38.6 42.1-70.9 90.7-96.1 144.6C81.6 453.7 66.1 569.7 88 672.7c10.7 50.4 29.9 95.1 56.9 132.7 28.1 39.2 63.6 68.9 105.4 88.4 16.4 7.6 33.4 13.5 50.9 17.6 9.3 5.3 18.9 10.2 28.5 14.7 51.8 24.2 107.1 36.9 164.3 37.8 2.2 0 4.5 0.1 6.7 0.1 52.9 0 105.2-10.1 155.6-30 52.5-20.8 100.3-51.1 142-90.3 43.2-40.5 78-88.7 103.4-143.3 25.4-54.5 40-112.2 43.3-171.3 3.1-57.2-4.3-113.3-22.2-166.9z m-39.3 329.7c-73.6 157.8-227 252-383.4 251.9-46.1 0-92.5-8.2-137.1-25.3h0.5c7.3 0 14.7-0.3 22.2-0.8 46.2-3.5 92.7-17.5 138.2-41.7 0.5-0.3 1.1-0.6 1.6-0.9 1.8-0.9 3.5-1.9 5.3-2.9 0.9-0.5 1.9-1 2.8-1.6 2-1.1 4-2.3 6-3.5 1.2-0.7 2.5-1.5 3.7-2.2l3-1.8c75.5-46.2 140.4-117.2 186.2-203.8 0.2-0.4 0.5-0.9 0.7-1.3 1.3-2.4 2.5-4.8 3.8-7.2 0.7-1.3 1.3-2.6 2-3.9 0.8-1.7 1.7-3.4 2.5-5.1 1.5-3.1 3-6.2 4.5-9.4 1.5-3.3 3-6.6 4.5-9.8 0.8-1.8 1.6-3.7 2.4-5.5 0.6-1.4 1.2-2.8 1.8-4.3 1.1-2.6 2.2-5.2 3.2-7.8 0.3-0.6 0.5-1.3 0.8-1.9 1.3-3.2 2.5-6.4 3.8-9.6v-0.1c35.1-91.7 45.6-187.5 29.8-274.9 0-0.3-0.1-0.5-0.1-0.8 0-0.1 0-0.2-0.1-0.3-0.3-1.6-0.6-3.3-0.9-4.9-0.2-1.2-0.5-2.5-0.7-3.7-0.2-1-0.4-2-0.6-3.1-0.1-0.5-0.2-0.9-0.3-1.4-0.4-2.1-0.9-4.2-1.4-6.2-0.4-1.6-0.8-3.2-1.2-4.9-0.3-1.3-0.6-2.6-1-4s-0.7-2.8-1.1-4.3c-0.3-1.2-0.7-2.5-1-3.7-0.7-2.5-1.4-5-2.2-7.5-0.3-1.1-0.6-2.1-1-3.2-0.5-1.5-1-3.1-1.5-4.6-0.3-1-0.6-1.9-0.9-2.9-0.5-1.6-1-3.1-1.6-4.7-0.2-0.6-0.5-1.3-0.7-1.9-1-2.9-2.1-5.9-3.2-8.8-0.3-0.9-0.7-1.8-1-2.7-0.6-1.5-1.1-2.9-1.7-4.3-0.4-1-0.8-2.1-1.3-3.1-0.8-1.9-1.6-3.8-2.4-5.6-0.7-1.5-1.4-3.1-2.1-4.6-0.5-1.1-1-2.1-1.5-3.2-0.7-1.5-1.4-3-2.1-4.4-0.4-0.9-0.8-1.7-1.2-2.6-1.2-2.3-2.3-4.6-3.5-6.9l-0.3-0.6c-1.2-2.3-2.4-4.5-3.7-6.8-0.2-0.3-0.4-0.7-0.6-1-7.1-12.6-14.9-24.4-23.4-35.6l-0.9-1.2c-0.6-0.8-1.3-1.6-1.9-2.4-0.8-1-1.5-1.9-2.3-2.9-0.3-0.3-0.5-0.7-0.8-1-6.3-7.8-13-15.2-20-22.1 95.6 45.8 167.1 127.9 201.6 231.6 35.2 105.6 28 220.4-20.2 323.7z" fill="#420B0D" p-id="1187"></path><path d="M272.796586 857.474543a292.5 392.5 24.999 1 0 331.742918-711.457403 292.5 392.5 24.999 1 0-331.742918 711.457403Z" fill="#FFFFFF" p-id="1188"></path><path d="M527.2 684.4l32.3 12.6-5.1-34.6-2.6-17.5c16.6-21.3 31.4-45.3 43.6-71.6 66.2-141.9 34.1-296.9-71.7-346.3s-245.1 25.7-311.3 167.7-33.9 297 71.9 346.3c40.5 18.9 86 19.5 130.4 5.1l12.8 18.3 13-28.4c27.7-12.8 54.5-31.3 78.8-54.7l7.9 3.1z" fill="#EFD4C2" p-id="1189"></path><path d="M647.3 902.7l-1.5 2.2c-3.1 4.7-9.5 5.9-14.2 2.8l-51.7-34.8c-4.7-3.1-5.9-9.5-2.8-14.2l1.5-2.2c3.1-4.7 9.5-5.9 14.2-2.8l51.7 34.8c4.7 3.1 6 9.5 2.8 14.2zM697.6 883.8l-0.8 1.1c-1.7 2.3-4.9 2.8-7.2 1.1l-56.1-41.2c-2.3-1.7-2.8-4.9-1.1-7.2l0.8-1.1c1.7-2.3 4.9-2.8 7.2-1.1l56.1 41.2c2.3 1.8 2.8 5 1.1 7.2zM739.6 856.6l-1.1 1.4c-2.3 3.1-6.6 3.8-9.7 1.5l-31.5-23.1c-3.1-2.3-3.8-6.6-1.5-9.7l1.1-1.4c2.3-3.1 6.6-3.8 9.7-1.5l31.5 23.1c3.1 2.2 3.8 6.6 1.5 9.7z" fill="#753E19" p-id="1190"></path></svg>